<svg width="71" height="42" viewBox="0 0 71 42" fill="none" xmlns="http://www.w3.org/2000/svg">
<path d="M32.668 27.7383C32.3581 32.0221 30.7721 35.3945 27.9102 37.8555C25.0664 40.3164 21.3112 41.5469 16.6445 41.5469C11.5404 41.5469 7.52083 39.8333 4.58594 36.4062C1.66927 32.9609 0.210938 28.2396 0.210938 22.2422V19.8086C0.210938 15.9805 0.885417 12.6081 2.23438 9.69141C3.58333 6.77474 5.50651 4.54167 8.00391 2.99219C10.5195 1.42448 13.4362 0.640625 16.7539 0.640625C21.3477 0.640625 25.0482 1.87109 27.8555 4.33203C30.6628 6.79297 32.2852 10.2474 32.7227 14.6953H24.5195C24.319 12.125 23.599 10.2656 22.3594 9.11719C21.138 7.95052 19.2695 7.36719 16.7539 7.36719C14.0195 7.36719 11.9688 8.35156 10.6016 10.3203C9.2526 12.2708 8.5599 15.306 8.52344 19.4258V22.4336C8.52344 26.7357 9.17057 29.8802 10.4648 31.8672C11.7773 33.8542 13.8372 34.8477 16.6445 34.8477C19.1784 34.8477 21.0651 34.2734 22.3047 33.125C23.5625 31.9583 24.2826 30.1628 24.4648 27.7383H32.668ZM52.7656 31.1289L61.7891 1.1875H70.9219L57.0586 41H48.5L34.6914 1.1875H43.7969L52.7656 31.1289Z" fill="#ACFFE1"/>
</svg>
