<svg width="50" height="50" viewBox="0 0 50 50" fill="none" xmlns="http://www.w3.org/2000/svg">
<path d="M46.6942 24.3473C42.0137 15.6945 33.8053 10.4584 24.722 10.4584C15.6387 10.4584 7.41645 15.6945 2.77756 24.3473L2.38867 25L2.74978 25.6667C7.43034 34.3195 15.6387 39.5556 24.722 39.5556C33.8053 39.5556 42.0276 34.3889 46.6942 25.6667L47.0553 25L46.6942 24.3473ZM24.722 36.7084C16.9026 36.7084 9.722 32.3473 5.55534 25C9.722 17.6528 16.9026 13.2917 24.722 13.2917C32.5414 13.2917 39.6387 17.6667 43.8748 25C39.6387 32.3473 32.5276 36.7084 24.722 36.7084V36.7084Z" fill="black"/>
<path d="M25.1254 34.5695C30.3875 34.5695 34.6532 30.3037 34.6532 25.0417C34.6532 19.7796 30.3875 15.5139 25.1254 15.5139C19.8634 15.5139 15.5977 19.7796 15.5977 25.0417C15.5977 30.3037 19.8634 34.5695 25.1254 34.5695Z" fill="black"/>
</svg>
