<svg width="127" height="127" viewBox="0 0 127 127" fill="none" xmlns="http://www.w3.org/2000/svg">
<path d="M63.4504 9.4629C32.7794 9.45049 7.9375 34.28 7.9375 64.9262C7.9375 89.1604 23.4776 109.761 45.1197 117.326C48.0343 118.058 47.5878 115.987 47.5878 114.573V104.961C30.7578 106.933 30.0757 95.7956 28.9471 93.9353C26.665 90.0409 21.27 89.0487 22.8823 87.1884C26.7146 85.2164 30.6214 87.6845 35.1482 94.3693C38.4225 99.2187 44.8097 98.4001 48.0467 97.5939C48.7536 94.6794 50.2667 92.0749 52.3503 90.0533C34.9126 86.9279 27.6448 76.2867 27.6448 63.6363C27.6448 57.4972 29.6664 51.8541 33.6352 47.3024C31.1051 39.799 33.8708 33.3746 34.2429 32.4196C41.4486 31.7747 48.9396 37.579 49.5226 38.0379C53.6153 36.9341 58.291 36.3512 63.5248 36.3512C68.7834 36.3512 73.4715 36.9589 77.6015 38.0751C79.0029 37.0085 85.9482 32.0228 92.6455 32.6305C93.0052 33.5855 95.7089 39.861 93.3276 47.2652C97.346 51.8293 99.3924 57.522 99.3924 63.6735C99.3924 76.3487 92.075 87.0023 74.5877 90.0781C76.0855 91.5511 77.2748 93.3078 78.0862 95.2456C78.8975 97.1834 79.3145 99.2635 79.313 101.364V115.317C79.4122 116.433 79.313 117.537 81.1733 117.537C103.138 110.133 118.951 89.3836 118.951 64.9386C118.951 34.28 94.0966 9.4629 63.4504 9.4629Z" fill="#000E11"/>
</svg>
