<svg width="50" height="50" viewBox="0 0 50 50" fill="none" xmlns="http://www.w3.org/2000/svg">
<path fill-rule="evenodd" clip-rule="evenodd" d="M24.5 43.3125C29.4894 43.3125 34.2744 41.3305 37.8024 37.8024C41.3305 34.2744 43.3125 29.4894 43.3125 24.5C43.3125 19.5106 41.3305 14.7256 37.8024 11.1976C34.2744 7.66953 29.4894 5.6875 24.5 5.6875C19.5106 5.6875 14.7256 7.66953 11.1976 11.1976C7.66953 14.7256 5.6875 19.5106 5.6875 24.5C5.6875 29.4894 7.66953 34.2744 11.1976 37.8024C14.7256 41.3305 19.5106 43.3125 24.5 43.3125V43.3125ZM24.5 46C30.2022 46 35.6708 43.7348 39.7028 39.7028C43.7348 35.6708 46 30.2022 46 24.5C46 18.7978 43.7348 13.3292 39.7028 9.2972C35.6708 5.26517 30.2022 3 24.5 3C18.7978 3 13.3292 5.26517 9.2972 9.2972C5.26517 13.3292 3 18.7978 3 24.5C3 30.2022 5.26517 35.6708 9.2972 39.7028C13.3292 43.7348 18.7978 46 24.5 46V46Z" fill="black"/>
<path d="M26.9992 20.7052L20.8449 21.4765L20.6245 22.4978L21.8339 22.7208C22.624 22.9089 22.7799 23.1938 22.6079 23.9813L20.6245 33.3015C20.1031 35.7122 20.9067 36.8463 22.796 36.8463C24.2607 36.8463 25.9619 36.1691 26.7332 35.2392L26.9697 34.1212C26.4322 34.5942 25.6474 34.7823 25.1261 34.7823C24.387 34.7823 24.1182 34.2636 24.3091 33.3499L26.9992 20.7052Z" fill="black"/>
<path d="M24.5 17.7812C25.9843 17.7812 27.1875 16.578 27.1875 15.0938C27.1875 13.6095 25.9843 12.4062 24.5 12.4062C23.0157 12.4062 21.8125 13.6095 21.8125 15.0938C21.8125 16.578 23.0157 17.7812 24.5 17.7812Z" fill="black"/>
</svg>
