<svg width="127" height="127" viewBox="0 0 127 127" fill="none" xmlns="http://www.w3.org/2000/svg">
<path d="M109.141 13.8906H17.8594C15.6642 13.8906 13.8906 15.6642 13.8906 17.8594V109.141C13.8906 111.336 15.6642 113.109 17.8594 113.109H109.141C111.336 113.109 113.109 111.336 113.109 109.141V17.8594C113.109 15.6642 111.336 13.8906 109.141 13.8906ZM43.3214 98.4374H28.5998V51.0853H43.3214V98.4374ZM35.9668 44.6112C34.2792 44.6112 32.6294 44.1108 31.2262 43.1732C29.823 42.2356 28.7293 40.903 28.0835 39.3438C27.4377 37.7846 27.2687 36.069 27.5979 34.4137C27.9272 32.7585 28.7399 31.2381 29.9332 30.0448C31.1265 28.8515 32.6469 28.0388 34.3021 27.7096C35.9573 27.3803 37.673 27.5493 39.2322 28.1951C40.7913 28.841 42.124 29.9346 43.0616 31.3378C43.9992 32.7411 44.4996 34.3908 44.4996 36.0784C44.4872 40.7913 40.6673 44.6112 35.9668 44.6112ZM98.4374 98.4374H83.7282V75.4062C83.7282 69.912 83.629 62.8551 76.076 62.8551C68.4237 62.8551 67.2455 68.833 67.2455 75.0094V98.4374H52.5487V51.0853H66.6626V57.5593H66.861C68.8206 53.8386 73.6203 49.907 80.7889 49.907C95.6965 49.907 98.4374 59.7173 98.4374 72.4669V98.4374Z" fill="#000E11"/>
</svg>
