<svg width="127" height="127" viewBox="0 0 127 127" fill="none" xmlns="http://www.w3.org/2000/svg">
<path d="M109.149 25.6401H17.8511C16.9903 25.6411 16.165 25.9836 15.5564 26.5925C14.9478 27.2013 14.6057 28.0267 14.605 28.8875V35.4204C14.605 35.7214 14.9314 36.0668 15.1981 36.2065L63.1863 63.6169C63.3092 63.6872 63.4486 63.7236 63.5901 63.7224C63.7349 63.7228 63.877 63.6842 64.0016 63.6106L110.54 36.2332C110.801 36.0872 111.495 35.7011 111.755 35.5233C112.07 35.3086 112.395 35.1143 112.395 34.7295V28.8863C112.394 28.0256 112.052 27.2006 111.443 26.592C110.835 25.9835 110.009 25.6411 109.149 25.6401Z" fill="#ACFFE1"/>
<path d="M111.99 45.27C111.865 45.1988 111.723 45.1617 111.58 45.1626C111.436 45.1635 111.295 45.2023 111.171 45.2751L84.8347 60.7704C84.7298 60.8315 84.64 60.9155 84.5719 61.0161C84.5039 61.1167 84.4594 61.2314 84.4417 61.3515C84.424 61.4717 84.4336 61.5943 84.4697 61.7103C84.5059 61.8262 84.5677 61.9325 84.6506 62.0213L110.99 90.4147C111.066 90.4967 111.158 90.5621 111.26 90.6067C111.362 90.6513 111.472 90.6741 111.583 90.6738C111.799 90.6734 112.005 90.5878 112.157 90.4357C112.309 90.2836 112.395 90.0774 112.395 89.8623V45.9749C112.396 45.8321 112.358 45.6917 112.287 45.568C112.216 45.4442 112.114 45.3414 111.99 45.27Z" fill="#ACFFE1"/>
<path d="M77.2452 65.9738C77.1202 65.8377 76.9522 65.7485 76.7694 65.7212C76.5866 65.694 76.3999 65.7302 76.2406 65.824L65.6844 72.0355C65.0659 72.3929 64.3651 72.5833 63.6508 72.5879C62.9366 72.5926 62.2333 72.4114 61.6102 72.0622L52.3202 66.7549C52.1702 66.6695 51.9969 66.634 51.8254 66.6536C51.654 66.6733 51.4932 66.747 51.3664 66.8641L16.0884 99.5869C15.9959 99.6734 15.9249 99.7803 15.881 99.899C15.8371 100.018 15.8216 100.145 15.8357 100.271C15.8497 100.397 15.893 100.518 15.962 100.624C16.031 100.73 16.1238 100.818 16.2331 100.882C16.7818 101.205 17.3114 101.359 17.8498 101.359H108.214C108.372 101.359 108.527 101.313 108.659 101.226C108.791 101.139 108.895 101.015 108.957 100.87C109.02 100.725 109.04 100.565 109.013 100.41C108.987 100.254 108.915 100.11 108.807 99.9946L77.2452 65.9738Z" fill="#ACFFE1"/>
<path d="M43.6042 62.9933C43.6976 62.9069 43.7694 62.7998 43.8138 62.6805C43.8582 62.5613 43.8739 62.4332 43.8597 62.3068C43.8455 62.1803 43.8017 62.059 43.732 61.9525C43.6622 61.8461 43.5684 61.7576 43.4581 61.6941L15.8153 45.9055C15.6919 45.8354 15.5523 45.799 15.4105 45.7998C15.2686 45.8007 15.1295 45.8387 15.0069 45.9102C14.8844 45.9817 14.7828 46.0841 14.7123 46.2072C14.6417 46.3303 14.6047 46.4697 14.605 46.6116V88.039C14.6041 88.1972 14.6496 88.3522 14.7359 88.4848C14.8222 88.6174 14.9455 88.7218 15.0905 88.7851C15.2356 88.8483 15.396 88.8677 15.5519 88.8407C15.7078 88.8137 15.8524 88.7416 15.9677 88.6333L43.6042 62.9933Z" fill="#ACFFE1"/>
</svg>
